<svg xmlns="http://www.w3.org/2000/svg" xmlns:xlink="http://www.w3.org/1999/xlink" width="250" zoomAndPan="magnify" viewBox="0 0 187.5 44.999999" height="60" preserveAspectRatio="xMidYMid meet" version="1.0"><defs><g/></defs><g fill="#ffcb05" fill-opacity="1"><g transform="translate(2.594471, 39.626237)"><g><path d="M 12.140625 0.40625 C 10.367188 0.40625 8.726562 0.03125 7.21875 -0.71875 C 5.71875 -1.46875 4.515625 -2.519531 3.609375 -3.875 C 2.703125 -5.226562 2.25 -6.789062 2.25 -8.5625 L 2.25 -17.578125 C 2.25 -19.390625 2.671875 -21 3.515625 -22.40625 C 4.367188 -23.820312 5.535156 -24.941406 7.015625 -25.765625 C 8.503906 -26.597656 10.210938 -27.015625 12.140625 -27.015625 C 14.078125 -27.015625 15.773438 -26.597656 17.234375 -25.765625 C 18.703125 -24.941406 19.847656 -23.820312 20.671875 -22.40625 C 21.503906 -21 21.921875 -19.390625 21.921875 -17.578125 L 21.921875 -11.15625 L 9.203125 -11.15625 L 9.203125 -8.390625 C 9.203125 -7.535156 9.46875 -6.816406 10 -6.234375 C 10.539062 -5.660156 11.253906 -5.375 12.140625 -5.375 C 12.835938 -5.375 13.484375 -5.585938 14.078125 -6.015625 C 14.679688 -6.441406 15.078125 -7.078125 15.265625 -7.921875 L 21.859375 -7.921875 C 21.710938 -6.109375 21.175781 -4.578125 20.25 -3.328125 C 19.320312 -2.078125 18.15625 -1.140625 16.75 -0.515625 C 15.34375 0.0976562 13.804688 0.40625 12.140625 0.40625 Z M 9.203125 -16.375 L 14.984375 -16.375 L 14.984375 -18.21875 C 14.984375 -19.070312 14.722656 -19.785156 14.203125 -20.359375 C 13.679688 -20.941406 12.976562 -21.234375 12.09375 -21.234375 C 11.207031 -21.234375 10.503906 -20.941406 9.984375 -20.359375 C 9.460938 -19.785156 9.203125 -19.070312 9.203125 -18.21875 Z M 9.203125 -16.375 "/></g></g></g><g fill="#ffcb05" fill-opacity="1"><g transform="translate(21.855487, 39.626237)"><g><path d="M 11.75 0.34375 C 9.96875 0.34375 8.332031 0.015625 6.84375 -0.640625 C 5.363281 -1.296875 4.179688 -2.257812 3.296875 -3.53125 C 2.410156 -4.800781 1.96875 -6.378906 1.96875 -8.265625 L 1.96875 -9.375 L 8.90625 -9.375 L 8.90625 -8.328125 C 8.988281 -7.210938 9.285156 -6.453125 9.796875 -6.046875 C 10.316406 -5.640625 10.96875 -5.4375 11.75 -5.4375 C 12.632812 -5.4375 13.335938 -5.753906 13.859375 -6.390625 C 14.378906 -7.023438 14.640625 -8.078125 14.640625 -9.546875 L 14.640625 -14.75 C 14.015625 -14.207031 13.375 -13.753906 12.71875 -13.390625 C 12.070312 -13.023438 11.1875 -12.84375 10.0625 -12.84375 C 7.25 -12.84375 5.195312 -13.726562 3.90625 -15.5 C 2.613281 -17.269531 1.96875 -19.488281 1.96875 -22.15625 L 1.96875 -27.25 C 1.96875 -29.019531 2.410156 -30.566406 3.296875 -31.890625 C 4.179688 -33.222656 5.363281 -34.265625 6.84375 -35.015625 C 8.332031 -35.773438 9.96875 -36.15625 11.75 -36.15625 C 13.550781 -36.15625 15.195312 -35.773438 16.6875 -35.015625 C 18.175781 -34.265625 19.363281 -33.222656 20.25 -31.890625 C 21.132812 -30.566406 21.578125 -29.019531 21.578125 -27.25 L 21.578125 -9.03125 C 21.578125 -7.25 21.148438 -5.65625 20.296875 -4.25 C 19.453125 -2.84375 18.296875 -1.722656 16.828125 -0.890625 C 15.367188 -0.0664062 13.675781 0.34375 11.75 0.34375 Z M 11.75 -18.625 C 12.632812 -18.625 13.335938 -18.910156 13.859375 -19.484375 C 14.378906 -20.066406 14.640625 -20.785156 14.640625 -21.640625 L 14.640625 -27.421875 C 14.640625 -28.265625 14.378906 -28.972656 13.859375 -29.546875 C 13.335938 -30.128906 12.632812 -30.421875 11.75 -30.421875 C 10.894531 -30.421875 10.207031 -30.128906 9.6875 -29.546875 C 9.164062 -28.972656 8.90625 -28.265625 8.90625 -27.421875 L 8.90625 -21.640625 C 8.90625 -20.785156 9.164062 -20.066406 9.6875 -19.484375 C 10.207031 -18.910156 10.894531 -18.625 11.75 -18.625 Z M 11.75 -18.625 "/></g></g></g><g fill="#005792" fill-opacity="1"><g transform="translate(44.739337, 39.626237)"><g><path d="M 12.84375 0.296875 C 10.875 0.296875 9.128906 -0.117188 7.609375 -0.953125 C 6.085938 -1.785156 4.890625 -2.914062 4.015625 -4.34375 C 3.148438 -5.769531 2.71875 -7.367188 2.71875 -9.140625 L 2.71875 -26.71875 C 2.71875 -28.53125 3.148438 -30.140625 4.015625 -31.546875 C 4.890625 -32.960938 6.085938 -34.082031 7.609375 -34.90625 C 9.128906 -35.738281 10.875 -36.15625 12.84375 -36.15625 C 14.65625 -36.15625 16.332031 -35.738281 17.875 -34.90625 C 19.414062 -34.082031 20.648438 -32.957031 21.578125 -31.53125 C 22.503906 -30.101562 22.96875 -28.484375 22.96875 -26.671875 L 22.96875 -26.03125 L 17.9375 -26.03125 L 17.9375 -26.671875 C 17.9375 -27.941406 17.675781 -28.941406 17.15625 -29.671875 C 16.632812 -30.398438 15.976562 -30.921875 15.1875 -31.234375 C 14.394531 -31.546875 13.613281 -31.703125 12.84375 -31.703125 C 11.601562 -31.703125 10.441406 -31.285156 9.359375 -30.453125 C 8.285156 -29.628906 7.75 -28.25 7.75 -26.3125 L 7.75 -9.546875 C 7.75 -7.617188 8.285156 -6.238281 9.359375 -5.40625 C 10.441406 -4.582031 11.601562 -4.171875 12.84375 -4.171875 C 13.613281 -4.171875 14.394531 -4.3125 15.1875 -4.59375 C 15.976562 -4.882812 16.632812 -5.382812 17.15625 -6.09375 C 17.675781 -6.8125 17.9375 -7.789062 17.9375 -9.03125 L 17.9375 -14.984375 L 14.515625 -14.984375 L 14.515625 -19.203125 L 22.96875 -19.203125 L 22.96875 0 L 18.734375 0 L 18.734375 -2.03125 C 17.929688 -1.101562 17.023438 -0.484375 16.015625 -0.171875 C 15.015625 0.140625 13.957031 0.296875 12.84375 0.296875 Z M 12.84375 0.296875 "/></g></g></g><g fill="#005792" fill-opacity="1"><g transform="translate(70.710355, 39.626237)"><g><path d="M 12.140625 0.296875 C 10.453125 0.296875 8.894531 -0.0546875 7.46875 -0.765625 C 6.039062 -1.484375 4.890625 -2.476562 4.015625 -3.75 C 3.148438 -5.03125 2.71875 -6.519531 2.71875 -8.21875 L 2.71875 -17.8125 C 2.71875 -19.550781 3.117188 -21.101562 3.921875 -22.46875 C 4.734375 -23.84375 5.851562 -24.921875 7.28125 -25.703125 C 8.707031 -26.492188 10.328125 -26.890625 12.140625 -26.890625 C 13.992188 -26.890625 15.613281 -26.492188 17 -25.703125 C 18.394531 -24.921875 19.484375 -23.84375 20.265625 -22.46875 C 21.054688 -21.101562 21.453125 -19.550781 21.453125 -17.8125 L 21.453125 -11.453125 L 7.75 -11.453125 L 7.75 -8.796875 C 7.75 -7.484375 8.15625 -6.382812 8.96875 -5.5 C 9.78125 -4.613281 10.835938 -4.171875 12.140625 -4.171875 C 13.035156 -4.171875 13.875 -4.421875 14.65625 -4.921875 C 15.445312 -5.421875 16 -6.09375 16.3125 -6.9375 L 21.28125 -6.9375 C 21.09375 -5.4375 20.535156 -4.144531 19.609375 -3.0625 C 18.679688 -1.988281 17.550781 -1.160156 16.21875 -0.578125 C 14.894531 0.00390625 13.535156 0.296875 12.140625 0.296875 Z M 7.75 -15.90625 L 16.421875 -15.90625 L 16.421875 -17.984375 C 16.421875 -19.253906 16.035156 -20.3125 15.265625 -21.15625 C 14.492188 -22.007812 13.4375 -22.4375 12.09375 -22.4375 C 10.78125 -22.4375 9.726562 -22.007812 8.9375 -21.15625 C 8.144531 -20.3125 7.75 -19.253906 7.75 -17.984375 Z M 7.75 -15.90625 "/></g></g></g><g fill="#005792" fill-opacity="1"><g transform="translate(94.888277, 39.626237)"><g><path d="M 10.640625 0.296875 C 8.671875 0.296875 7.050781 -0.109375 5.78125 -0.921875 C 4.507812 -1.734375 3.554688 -2.765625 2.921875 -4.015625 C 2.285156 -5.273438 1.890625 -6.539062 1.734375 -7.8125 L 6.421875 -7.8125 C 6.492188 -6.300781 6.945312 -5.253906 7.78125 -4.671875 C 8.613281 -4.097656 9.507812 -3.8125 10.46875 -3.8125 C 11.738281 -3.8125 12.710938 -4.039062 13.390625 -4.5 C 14.066406 -4.96875 14.40625 -5.742188 14.40625 -6.828125 C 14.40625 -7.753906 13.988281 -8.523438 13.15625 -9.140625 C 12.332031 -9.753906 11.3125 -10.332031 10.09375 -10.875 C 8.875 -11.414062 7.65625 -12.03125 6.4375 -12.71875 C 5.226562 -13.414062 4.207031 -14.296875 3.375 -15.359375 C 2.550781 -16.421875 2.140625 -17.757812 2.140625 -19.375 C 2.140625 -21.1875 2.570312 -22.640625 3.4375 -23.734375 C 4.3125 -24.835938 5.398438 -25.640625 6.703125 -26.140625 C 8.015625 -26.640625 9.304688 -26.890625 10.578125 -26.890625 C 12.585938 -26.890625 14.195312 -26.472656 15.40625 -25.640625 C 16.625 -24.816406 17.53125 -23.785156 18.125 -22.546875 C 18.726562 -21.316406 19.066406 -20.066406 19.140625 -18.796875 L 14.6875 -18.796875 C 14.53125 -20.265625 14.03125 -21.296875 13.1875 -21.890625 C 12.34375 -22.492188 11.535156 -22.796875 10.765625 -22.796875 C 10.523438 -22.796875 10.113281 -22.726562 9.53125 -22.59375 C 8.957031 -22.457031 8.421875 -22.15625 7.921875 -21.6875 C 7.421875 -21.226562 7.171875 -20.476562 7.171875 -19.4375 C 7.171875 -18.625 7.582031 -17.898438 8.40625 -17.265625 C 9.238281 -16.628906 10.257812 -16 11.46875 -15.375 C 12.6875 -14.757812 13.90625 -14.078125 15.125 -13.328125 C 16.34375 -12.578125 17.363281 -11.679688 18.1875 -10.640625 C 19.019531 -9.597656 19.4375 -8.328125 19.4375 -6.828125 C 19.4375 -5.972656 19.1875 -4.988281 18.6875 -3.875 C 18.1875 -2.757812 17.296875 -1.785156 16.015625 -0.953125 C 14.742188 -0.117188 12.953125 0.296875 10.640625 0.296875 Z M 10.640625 0.296875 "/></g></g></g><g fill="#005792" fill-opacity="1"><g transform="translate(115.827049, 39.626237)"><g><path d="M 13.078125 0 C 11.453125 0 10.050781 -0.25 8.875 -0.75 C 7.695312 -1.25 6.789062 -2.164062 6.15625 -3.5 C 5.519531 -4.832031 5.203125 -6.734375 5.203125 -9.203125 L 5.203125 -22.15625 L 0.984375 -22.15625 L 0.984375 -26.609375 L 5.203125 -26.609375 L 5.203125 -34.25 L 10.234375 -34.25 L 10.234375 -26.609375 L 15.5 -26.609375 L 15.5 -22.15625 L 10.234375 -22.15625 L 10.234375 -9.609375 C 10.234375 -8.679688 10.328125 -7.820312 10.515625 -7.03125 C 10.710938 -6.238281 11.128906 -5.609375 11.765625 -5.140625 C 12.398438 -4.679688 13.335938 -4.453125 14.578125 -4.453125 L 15.5 -4.453125 L 15.5 0 Z M 13.078125 0 "/></g></g></g><g fill="#005792" fill-opacity="1"><g transform="translate(133.179617, 39.626237)"><g><path d="M 15.328125 -29.09375 C 14.628906 -29.09375 14.007812 -29.175781 13.46875 -29.34375 C 12.9375 -29.519531 12.398438 -29.742188 11.859375 -30.015625 C 11.585938 -30.171875 11.238281 -30.332031 10.8125 -30.5 C 10.394531 -30.675781 10.03125 -30.765625 9.71875 -30.765625 C 9.332031 -30.765625 8.894531 -30.664062 8.40625 -30.46875 C 7.925781 -30.28125 7.476562 -29.921875 7.0625 -29.390625 L 4.5625 -32.390625 C 5.070312 -33.117188 5.78125 -33.773438 6.6875 -34.359375 C 7.59375 -34.941406 8.332031 -35.234375 8.90625 -35.234375 C 9.25 -35.234375 9.601562 -35.15625 9.96875 -35 C 10.34375 -34.84375 10.738281 -34.664062 11.15625 -34.46875 C 11.625 -34.238281 12.132812 -34.023438 12.6875 -33.828125 C 13.25 -33.640625 13.859375 -33.546875 14.515625 -33.546875 C 14.898438 -33.546875 15.34375 -33.640625 15.84375 -33.828125 C 16.34375 -34.023438 16.785156 -34.394531 17.171875 -34.9375 L 19.671875 -31.9375 C 19.171875 -31.195312 18.46875 -30.535156 17.5625 -29.953125 C 16.65625 -29.378906 15.910156 -29.09375 15.328125 -29.09375 Z M 10.703125 0.296875 C 8.390625 0.296875 6.476562 -0.382812 4.96875 -1.75 C 3.46875 -3.125 2.71875 -5.222656 2.71875 -8.046875 L 2.71875 -18.5625 C 2.71875 -21.414062 3.46875 -23.515625 4.96875 -24.859375 C 6.476562 -26.210938 8.390625 -26.890625 10.703125 -26.890625 C 11.429688 -26.890625 12.257812 -26.800781 13.1875 -26.625 C 14.113281 -26.457031 15.3125 -25.832031 16.78125 -24.75 L 17.40625 -26.609375 L 21.8125 -26.609375 L 21.8125 0 L 17.40625 0 L 16.78125 -1.84375 C 15.3125 -0.769531 14.113281 -0.144531 13.1875 0.03125 C 12.257812 0.207031 11.429688 0.296875 10.703125 0.296875 Z M 12.140625 -4.171875 C 13.492188 -4.171875 14.601562 -4.5625 15.46875 -5.34375 C 16.34375 -6.132812 16.78125 -7.242188 16.78125 -8.671875 L 16.78125 -17.9375 C 16.78125 -19.394531 16.34375 -20.507812 15.46875 -21.28125 C 14.601562 -22.050781 13.492188 -22.4375 12.140625 -22.4375 C 11.023438 -22.4375 10.015625 -22.0625 9.109375 -21.3125 C 8.203125 -20.5625 7.75 -19.4375 7.75 -17.9375 L 7.75 -8.671875 C 7.75 -7.171875 8.203125 -6.046875 9.109375 -5.296875 C 10.015625 -4.546875 11.023438 -4.171875 12.140625 -4.171875 Z M 12.140625 -4.171875 "/></g></g></g><g fill="#005792" fill-opacity="1"><g transform="translate(157.993793, 39.626237)"><g><path d="M 12.09375 0.296875 C 10.394531 0.296875 8.832031 -0.0546875 7.40625 -0.765625 C 5.976562 -1.484375 4.835938 -2.476562 3.984375 -3.75 C 3.140625 -5.03125 2.71875 -6.519531 2.71875 -8.21875 L 2.71875 -17.8125 C 2.71875 -19.550781 3.117188 -21.101562 3.921875 -22.46875 C 4.734375 -23.84375 5.851562 -24.921875 7.28125 -25.703125 C 8.707031 -26.492188 10.3125 -26.890625 12.09375 -26.890625 C 13.90625 -26.890625 15.515625 -26.492188 16.921875 -25.703125 C 18.328125 -24.921875 19.429688 -23.84375 20.234375 -22.46875 C 21.046875 -21.101562 21.453125 -19.550781 21.453125 -17.8125 L 21.453125 -8.21875 C 21.453125 -6.519531 21.03125 -5.03125 20.1875 -3.75 C 19.34375 -2.476562 18.210938 -1.484375 16.796875 -0.765625 C 15.390625 -0.0546875 13.820312 0.296875 12.09375 0.296875 Z M 12.09375 -4.171875 C 13.363281 -4.171875 14.398438 -4.601562 15.203125 -5.46875 C 16.015625 -6.332031 16.421875 -7.421875 16.421875 -8.734375 L 16.421875 -17.984375 C 16.421875 -19.253906 16.015625 -20.3125 15.203125 -21.15625 C 14.398438 -22.007812 13.363281 -22.4375 12.09375 -22.4375 C 10.820312 -22.4375 9.78125 -22.007812 8.96875 -21.15625 C 8.15625 -20.3125 7.75 -19.253906 7.75 -17.984375 L 7.75 -8.734375 C 7.75 -7.421875 8.15625 -6.332031 8.96875 -5.46875 C 9.78125 -4.601562 10.820312 -4.171875 12.09375 -4.171875 Z M 12.09375 -4.171875 "/></g></g></g></svg>