<svg xmlns="http://www.w3.org/2000/svg" viewBox="0 0 75 75" width="500" height="500">
  <!-- Fundo azul circular (Instagram, perfil pessoal LinkedIn) -->
  <circle cx="37.5" cy="37.5" r="37.5" fill="#005792"/>
  <g fill="#ffcb05">
    <g transform="translate(0.741195, 66.193638)">
      <path d="M 20.71875 0.6875 C 17.6875 0.6875 14.890625 0.046875 12.328125 -1.234375 C 9.765625 -2.515625 7.707031 -4.304688 6.15625 -6.609375 C 4.613281 -8.910156 3.84375 -11.570312 3.84375 -14.59375 L 3.84375 -29.984375 C 3.84375 -33.078125 4.566406 -35.820312 6.015625 -38.21875 C 7.460938 -40.625 9.453125 -42.535156 11.984375 -43.953125 C 14.515625 -45.367188 17.425781 -46.078125 20.71875 -46.078125 C 24.007812 -46.078125 26.90625 -45.367188 29.40625 -43.953125 C 31.90625 -42.535156 33.859375 -40.625 35.265625 -38.21875 C 36.679688 -35.820312 37.390625 -33.078125 37.390625 -29.984375 L 37.390625 -19.046875 L 15.6875 -19.046875 L 15.6875 -14.3125 C 15.6875 -12.863281 16.144531 -11.644531 17.0625 -10.65625 C 17.988281 -9.664062 19.207031 -9.171875 20.71875 -9.171875 C 21.90625 -9.171875 23.003906 -9.53125 24.015625 -10.25 C 25.035156 -10.976562 25.710938 -12.066406 26.046875 -13.515625 L 37.296875 -13.515625 C 37.023438 -10.421875 36.097656 -7.804688 34.515625 -5.671875 C 32.941406 -3.535156 30.953125 -1.941406 28.546875 -0.890625 C 26.148438 0.160156 23.539062 0.6875 20.71875 0.6875 Z M 15.6875 -27.921875 L 25.546875 -27.921875 L 25.546875 -31.078125 C 25.546875 -32.523438 25.101562 -33.738281 24.21875 -34.71875 C 23.332031 -35.707031 22.132812 -36.203125 20.625 -36.203125 C 19.101562 -36.203125 17.898438 -35.707031 17.015625 -34.71875 C 16.128906 -33.738281 15.6875 -32.523438 15.6875 -31.078125 Z M 15.6875 -27.921875 "/>
    </g>
    <g transform="translate(33.590008, 66.193638)">
      <path d="M 20.03125 0.59375 C 17 0.59375 14.21875 0.0351562 11.6875 -1.078125 C 9.15625 -2.203125 7.132812 -3.847656 5.625 -6.015625 C 4.113281 -8.191406 3.359375 -10.890625 3.359375 -14.109375 L 3.359375 -15.984375 L 15.1875 -15.984375 L 15.1875 -14.203125 C 15.320312 -12.296875 15.832031 -11 16.71875 -10.3125 C 17.601562 -9.625 18.707031 -9.28125 20.03125 -9.28125 C 21.539062 -9.28125 22.738281 -9.820312 23.625 -10.90625 C 24.507812 -11.988281 24.953125 -13.78125 24.953125 -16.28125 L 24.953125 -25.15625 C 23.898438 -24.238281 22.816406 -23.46875 21.703125 -22.84375 C 20.585938 -22.21875 19.078125 -21.90625 17.171875 -21.90625 C 12.367188 -21.90625 8.863281 -23.414062 6.65625 -26.4375 C 4.457031 -29.46875 3.359375 -33.25 3.359375 -37.78125 L 3.359375 -46.46875 C 3.359375 -49.488281 4.113281 -52.132812 5.625 -54.40625 C 7.132812 -56.675781 9.15625 -58.453125 11.6875 -59.734375 C 14.21875 -61.015625 17 -61.65625 20.03125 -61.65625 C 23.113281 -61.65625 25.921875 -61.015625 28.453125 -59.734375 C 30.992188 -58.453125 33.019531 -56.675781 34.53125 -54.40625 C 36.039062 -52.132812 36.796875 -49.488281 36.796875 -46.46875 L 36.796875 -15.390625 C 36.796875 -12.367188 36.070312 -9.65625 34.625 -7.25 C 33.175781 -4.851562 31.203125 -2.945312 28.703125 -1.53125 C 26.203125 -0.113281 23.3125 0.59375 20.03125 0.59375 Z M 20.03125 -31.765625 C 21.539062 -31.765625 22.738281 -32.257812 23.625 -33.25 C 24.507812 -34.238281 24.953125 -35.453125 24.953125 -36.890625 L 24.953125 -46.765625 C 24.953125 -48.210938 24.507812 -49.425781 23.625 -50.40625 C 22.738281 -51.394531 21.539062 -51.890625 20.03125 -51.890625 C 18.582031 -51.890625 17.410156 -51.394531 16.515625 -50.40625 C 15.628906 -49.425781 15.1875 -48.210938 15.1875 -46.765625 L 15.1875 -36.890625 C 15.1875 -35.453125 15.628906 -34.238281 16.515625 -33.25 C 17.410156 -32.257812 18.582031 -31.765625 20.03125 -31.765625 Z M 20.03125 -31.765625 "/>
    </g>
  </g>
</svg>
